<svg width="777" height="190" viewBox="0 0 777 190" fill="none" xmlns="http://www.w3.org/2000/svg">
<ellipse cx="74.6694" cy="60.2643" rx="49.4439" ry="59.3327" fill="#FF5A60"/>
<rect x="0.503586" y="45.3203" width="148.332" height="83.0181" rx="41.509" fill="#FF5A60"/>
<path d="M73.9284 117.654V186.876M49.7616 184.648L99.2048 184.905M23.0106 74.2584L76.0991 118.679M126.328 73.4673L73.2398 117.888" stroke="black" stroke-width="8.91138"/>
<path d="M214.233 140.672C208.601 140.672 203.225 139.904 198.105 138.368C193.07 136.832 189.102 134.954 186.201 132.736L191.321 123.008C194.222 124.97 197.806 126.634 202.073 128C206.34 129.365 210.692 130.048 215.129 130.048C220.846 130.048 224.942 129.237 227.417 127.616C229.977 125.994 231.257 123.733 231.257 120.832C231.257 118.698 230.489 117.034 228.953 115.84C227.417 114.645 225.369 113.749 222.809 113.152C220.334 112.554 217.561 112.042 214.489 111.616C211.417 111.104 208.345 110.506 205.273 109.824C202.201 109.056 199.385 108.032 196.825 106.752C194.265 105.386 192.217 103.552 190.681 101.248C189.145 98.8585 188.377 95.7011 188.377 91.7758C188.377 87.6798 189.529 84.0958 191.833 81.0238C194.137 77.9518 197.38 75.6051 201.561 73.9838C205.828 72.2771 210.862 71.4238 216.665 71.4238C221.102 71.4238 225.582 71.9785 230.105 73.0878C234.713 74.1118 238.468 75.6051 241.369 77.5678L236.121 87.2958C233.049 85.2478 229.849 83.8398 226.521 83.0718C223.193 82.3038 219.865 81.9198 216.537 81.9198C211.161 81.9198 207.15 82.8158 204.505 84.6078C201.86 86.3145 200.537 88.5331 200.537 91.2638C200.537 93.5678 201.305 95.3598 202.841 96.6398C204.462 97.8345 206.51 98.7731 208.985 99.4558C211.545 100.138 214.361 100.736 217.433 101.248C220.505 101.674 223.577 102.272 226.649 103.04C229.721 103.722 232.494 104.704 234.969 105.984C237.529 107.264 239.577 109.056 241.113 111.36C242.734 113.664 243.545 116.736 243.545 120.576C243.545 124.672 242.35 128.213 239.961 131.2C237.572 134.186 234.201 136.533 229.849 138.24C225.497 139.861 220.292 140.672 214.233 140.672ZM294.87 140.672C289.238 140.672 284.075 139.392 279.382 136.832C274.774 134.186 271.062 130.304 268.246 125.184C265.515 120.064 264.15 113.664 264.15 105.984C264.15 98.3038 265.473 91.9038 268.118 86.7838C270.849 81.6638 274.518 77.8238 279.126 75.2638C283.819 72.7038 289.067 71.4238 294.87 71.4238C301.526 71.4238 307.414 72.8745 312.534 75.7758C317.654 78.6771 321.707 82.7305 324.694 87.9358C327.681 93.0558 329.174 99.0718 329.174 105.984C329.174 112.896 327.681 118.954 324.694 124.16C321.707 129.365 317.654 133.418 312.534 136.32C307.414 139.221 301.526 140.672 294.87 140.672ZM258.902 164.736V72.0638H270.678V90.3678L269.91 106.112L271.19 121.856V164.736H258.902ZM293.846 129.92C298.198 129.92 302.081 128.938 305.494 126.976C308.993 125.013 311.723 122.24 313.686 118.656C315.734 114.986 316.758 110.762 316.758 105.984C316.758 101.12 315.734 96.9385 313.686 93.4398C311.723 89.8558 308.993 87.0825 305.494 85.1198C302.081 83.1571 298.198 82.1758 293.846 82.1758C289.579 82.1758 285.697 83.1571 282.198 85.1198C278.785 87.0825 276.054 89.8558 274.006 93.4398C272.043 96.9385 271.062 101.12 271.062 105.984C271.062 110.762 272.043 114.986 274.006 118.656C276.054 122.24 278.785 125.013 282.198 126.976C285.697 128.938 289.579 129.92 293.846 129.92ZM387.639 139.904V125.568L386.999 122.88V98.4318C386.999 93.2265 385.463 89.2158 382.391 86.3998C379.404 83.4985 374.882 82.0478 368.823 82.0478C364.812 82.0478 360.887 82.7305 357.047 84.0958C353.207 85.3758 349.964 87.1251 347.319 89.3438L342.199 80.1278C345.698 77.3118 349.879 75.1785 354.743 73.7278C359.692 72.1918 364.855 71.4238 370.231 71.4238C379.532 71.4238 386.7 73.6851 391.735 78.2078C396.77 82.7305 399.287 89.6425 399.287 98.9438V139.904H387.639ZM365.367 140.672C360.332 140.672 355.895 139.818 352.055 138.112C348.3 136.405 345.399 134.058 343.351 131.072C341.303 128 340.279 124.544 340.279 120.704C340.279 117.034 341.132 113.706 342.839 110.72C344.631 107.733 347.49 105.344 351.415 103.552C355.426 101.76 360.802 100.864 367.543 100.864H389.047V109.696H368.055C361.911 109.696 357.772 110.72 355.639 112.768C353.506 114.816 352.439 117.29 352.439 120.192C352.439 123.52 353.762 126.208 356.407 128.256C359.052 130.218 362.722 131.2 367.415 131.2C372.023 131.2 376.034 130.176 379.447 128.128C382.946 126.08 385.463 123.093 386.999 119.168L389.431 127.616C387.81 131.626 384.951 134.826 380.855 137.216C376.759 139.52 371.596 140.672 365.367 140.672ZM451.595 140.672C444.683 140.672 438.496 139.178 433.035 136.192C427.659 133.205 423.435 129.109 420.363 123.904C417.291 118.698 415.755 112.725 415.755 105.984C415.755 99.2425 417.291 93.2691 420.363 88.0638C423.435 82.8585 427.659 78.8051 433.035 75.9038C438.496 72.9171 444.683 71.4238 451.595 71.4238C457.739 71.4238 463.2 72.6611 467.979 75.1358C472.843 77.5251 476.598 81.1091 479.243 85.8878L469.899 91.9038C467.68 88.5758 464.95 86.1438 461.707 84.6078C458.55 82.9865 455.136 82.1758 451.467 82.1758C447.03 82.1758 443.062 83.1571 439.563 85.1198C436.064 87.0825 433.291 89.8558 431.243 93.4398C429.195 96.9385 428.171 101.12 428.171 105.984C428.171 110.848 429.195 115.072 431.243 118.656C433.291 122.24 436.064 125.013 439.563 126.976C443.062 128.938 447.03 129.92 451.467 129.92C455.136 129.92 458.55 129.152 461.707 127.616C464.95 125.994 467.68 123.52 469.899 120.192L479.243 126.08C476.598 130.773 472.843 134.4 467.979 136.96C463.2 139.434 457.739 140.672 451.595 140.672ZM524.36 140.672C517.107 140.672 510.707 139.178 505.16 136.192C499.699 133.205 495.432 129.109 492.36 123.904C489.373 118.698 487.88 112.725 487.88 105.984C487.88 99.2425 489.331 93.2691 492.232 88.0638C495.219 82.8585 499.272 78.8051 504.392 75.9038C509.597 72.9171 515.443 71.4238 521.928 71.4238C528.499 71.4238 534.301 72.8745 539.336 75.7758C544.371 78.6771 548.296 82.7731 551.112 88.0638C554.013 93.2691 555.464 99.3705 555.464 106.368C555.464 106.88 555.421 107.477 555.336 108.16C555.336 108.842 555.293 109.482 555.208 110.08H497.48V101.248H548.808L543.816 104.32C543.901 99.9678 543.005 96.0851 541.128 92.6718C539.251 89.2585 536.648 86.6131 533.32 84.7358C530.077 82.7731 526.28 81.7918 521.928 81.7918C517.661 81.7918 513.864 82.7731 510.536 84.7358C507.208 86.6131 504.605 89.3011 502.728 92.7998C500.851 96.2131 499.912 100.138 499.912 104.576V106.624C499.912 111.146 500.936 115.2 502.984 118.784C505.117 122.282 508.061 125.013 511.816 126.976C515.571 128.938 519.88 129.92 524.744 129.92C528.755 129.92 532.381 129.237 535.624 127.872C538.952 126.506 541.853 124.458 544.328 121.728L551.112 129.664C548.04 133.248 544.2 135.978 539.592 137.856C535.069 139.733 529.992 140.672 524.36 140.672ZM608.495 140.672C602.692 140.672 597.444 139.392 592.751 136.832C588.143 134.186 584.474 130.304 581.743 125.184C579.098 120.064 577.775 113.664 577.775 105.984C577.775 98.3038 579.14 91.9038 581.871 86.7838C584.687 81.6638 588.399 77.8238 593.007 75.2638C597.7 72.7038 602.863 71.4238 608.495 71.4238C615.151 71.4238 621.039 72.8745 626.159 75.7758C631.279 78.6771 635.332 82.7305 638.319 87.9358C641.306 93.0558 642.799 99.0718 642.799 105.984C642.799 112.896 641.306 118.954 638.319 124.16C635.332 129.365 631.279 133.418 626.159 136.32C621.039 139.221 615.151 140.672 608.495 140.672ZM572.527 139.904V44.9278H584.815V90.1118L583.535 105.856L584.303 121.6V139.904H572.527ZM607.471 129.92C611.823 129.92 615.706 128.938 619.119 126.976C622.618 125.013 625.348 122.24 627.311 118.656C629.359 114.986 630.383 110.762 630.383 105.984C630.383 101.12 629.359 96.9385 627.311 93.4398C625.348 89.8558 622.618 87.0825 619.119 85.1198C615.706 83.1571 611.823 82.1758 607.471 82.1758C603.204 82.1758 599.322 83.1571 595.823 85.1198C592.41 87.0825 589.679 89.8558 587.631 93.4398C585.668 96.9385 584.687 101.12 584.687 105.984C584.687 110.762 585.668 114.986 587.631 118.656C589.679 122.24 592.41 125.013 595.823 126.976C599.322 128.938 603.204 129.92 607.471 129.92ZM701.264 139.904V125.568L700.624 122.88V98.4318C700.624 93.2265 699.088 89.2158 696.016 86.3998C693.029 83.4985 688.507 82.0478 682.448 82.0478C678.437 82.0478 674.512 82.7305 670.672 84.0958C666.832 85.3758 663.589 87.1251 660.944 89.3438L655.824 80.1278C659.323 77.3118 663.504 75.1785 668.368 73.7278C673.317 72.1918 678.48 71.4238 683.856 71.4238C693.157 71.4238 700.325 73.6851 705.36 78.2078C710.395 82.7305 712.912 89.6425 712.912 98.9438V139.904H701.264ZM678.992 140.672C673.957 140.672 669.52 139.818 665.68 138.112C661.925 136.405 659.024 134.058 656.976 131.072C654.928 128 653.904 124.544 653.904 120.704C653.904 117.034 654.757 113.706 656.464 110.72C658.256 107.733 661.115 105.344 665.04 103.552C669.051 101.76 674.427 100.864 681.168 100.864H702.672V109.696H681.68C675.536 109.696 671.397 110.72 669.264 112.768C667.131 114.816 666.064 117.29 666.064 120.192C666.064 123.52 667.387 126.208 670.032 128.256C672.677 130.218 676.347 131.2 681.04 131.2C685.648 131.2 689.659 130.176 693.072 128.128C696.571 126.08 699.088 123.093 700.624 119.168L703.056 127.616C701.435 131.626 698.576 134.826 694.48 137.216C690.384 139.52 685.221 140.672 678.992 140.672ZM735.652 139.904V72.0638H747.428V90.4958L746.276 85.8878C748.153 81.1945 751.311 77.6105 755.748 75.1358C760.185 72.6611 765.647 71.4238 772.132 71.4238V83.3278C771.62 83.2425 771.108 83.1998 770.596 83.1998C770.169 83.1998 769.743 83.1998 769.316 83.1998C762.745 83.1998 757.54 85.1625 753.7 89.0878C749.86 93.0131 747.94 98.6878 747.94 106.112V139.904H735.652Z" fill="#FF5A60"/>
</svg>
